<svg width="17" height="16" viewBox="0 0 17 16" fill="none" xmlns="http://www.w3.org/2000/svg">
<path d="M2.95096 1.99141C1.79228 3.14838 1.11837 4.70363 1.06655 6.34023C1.01474 7.97682 1.58893 9.57159 2.6721 10.7995C3.75527 12.0275 5.26591 12.7962 6.89618 12.9491C8.49673 13.0991 10.0943 12.6444 11.3752 11.6766L14.7064 15.0085L14.7064 15.0085C14.7892 15.0914 14.8876 15.1571 14.9958 15.2019C15.104 15.2468 15.22 15.2698 15.3372 15.2698C15.4543 15.2698 15.5703 15.2468 15.6786 15.2019C15.7868 15.1571 15.8852 15.0914 15.968 15.0085C16.0508 14.9257 16.1165 14.8274 16.1614 14.7191C16.2062 14.6109 16.2293 14.4949 16.2293 14.3777C16.2293 14.2606 16.2062 14.1446 16.1614 14.0363C16.1165 13.9281 16.0508 13.8298 15.968 13.7469L15.968 13.7469L12.6363 10.416C13.6015 9.13496 14.0542 7.53846 13.9033 5.93943C13.7496 4.31054 12.9811 2.80139 11.7541 1.719C10.5272 0.636623 8.93397 0.0623154 7.29862 0.11292C5.66327 0.163525 4.10863 0.835233 2.95096 1.99141ZM2.95096 1.99141L3.02162 2.06217L2.95096 1.99141ZM10.789 3.25366C11.2266 3.68416 11.5746 4.19703 11.8129 4.76269C12.0513 5.32835 12.1753 5.93561 12.1778 6.54944C12.1803 7.16327 12.0612 7.77152 11.8275 8.3391C11.5937 8.90669 11.2499 9.42238 10.8159 9.85642C10.3818 10.2905 9.86614 10.6343 9.29855 10.868C8.73097 11.1018 8.12272 11.2208 7.50889 11.2183C6.89506 11.2158 6.2878 11.0918 5.72214 10.8535C5.15648 10.6151 4.64361 10.2671 4.21311 9.82954C3.3528 8.95509 2.87287 7.77613 2.87786 6.54944C2.88286 5.32275 3.37237 4.14773 4.23978 3.28033C5.10719 2.41292 6.28221 1.92341 7.50889 1.91841C8.73558 1.91342 9.91455 2.39335 10.789 3.25366Z" fill="black" stroke="black" stroke-width="0.2"/>
</svg>
