<svg width="24" height="24" viewBox="0 0 24 24" fill="none" xmlns="http://www.w3.org/2000/svg">
<path d="M17.9998 10.8H16.7998V7.2C16.7998 4.56 14.6398 2.4 11.9998 2.4C9.3598 2.4 7.1998 4.56 7.1998 7.2V10.8H5.9998C5.3998 10.8 4.7998 11.4 4.7998 12V20.4C4.7998 21 5.3998 21.6 5.9998 21.6H17.9998C18.5998 21.6 19.1998 21 19.1998 20.4V12C19.1998 11.4 18.5998 10.8 17.9998 10.8ZM13.1998 19.2H10.7998L11.2798 16.56C10.6798 16.32 10.1998 15.6 10.1998 15C10.1998 14.04 11.0398 13.2 11.9998 13.2C12.9598 13.2 13.7998 14.04 13.7998 15C13.7998 15.72 13.4398 16.32 12.7198 16.56L13.1998 19.2ZM14.3998 10.8H9.5998V7.2C9.5998 5.88 10.6798 4.8 11.9998 4.8C13.3198 4.8 14.3998 5.88 14.3998 7.2V10.8Z" fill="white"/>
</svg>
