<svg width="19" height="19" viewBox="0 0 19 19" fill="none" xmlns="http://www.w3.org/2000/svg">
<path d="M16.7063 16.0085L16.7063 16.0085C16.7891 16.0914 16.8875 16.1571 16.9957 16.2019C17.1039 16.2468 17.2199 16.2698 17.3371 16.2698C17.4542 16.2698 17.5702 16.2468 17.6785 16.2019C17.7867 16.1571 17.8851 16.0914 17.9679 16.0085C18.0507 15.9257 18.1165 15.8274 18.1613 15.7191C18.2061 15.6109 18.2292 15.4949 18.2292 15.3777C18.2292 15.2606 18.2061 15.1446 18.1613 15.0363C18.1165 14.9281 18.0507 14.8298 17.9679 14.7469L17.9679 14.7469L14.6362 11.416C15.6014 10.135 16.0541 8.53846 15.9032 6.93943C15.7495 5.31054 14.981 3.80139 13.754 2.719C12.5271 1.63662 10.9339 1.06232 9.29853 1.11292C7.66318 1.16352 6.10854 1.83523 4.95087 2.99141C3.79219 4.14838 3.11828 5.70363 3.06646 7.34023C3.01465 8.97682 3.58883 10.5716 4.67201 11.7995C5.75518 13.0275 7.26582 13.7962 8.89609 13.9491C10.4966 14.0991 12.0942 13.6444 13.3751 12.6766L16.7063 16.0085ZM12.7889 4.25366C13.2265 4.68416 13.5745 5.19703 13.8128 5.76269C14.0512 6.32835 14.1752 6.93561 14.1777 7.54944C14.1802 8.16327 14.0611 8.77152 13.8274 9.3391C13.5936 9.90669 13.2498 10.4224 12.8158 10.8564C12.3817 11.2905 11.866 11.6343 11.2985 11.868C10.7309 12.1018 10.1226 12.2208 9.5088 12.2183C8.89497 12.2158 8.28771 12.0918 7.72205 11.8535C7.15639 11.6151 6.64352 11.2671 6.21302 10.8295C5.35271 9.9551 4.87278 8.77613 4.87777 7.54944C4.88277 6.32275 5.37228 5.14773 6.23969 4.28033C7.10709 3.41292 8.28211 2.92341 9.5088 2.91841C10.7355 2.91342 11.9145 3.39335 12.7889 4.25366Z" fill="#0156FF" stroke="#0156FF" stroke-width="0.2"/>
</svg>
