<svg width="27" height="27" viewBox="0 0 27 27" fill="none" xmlns="http://www.w3.org/2000/svg">
<circle cx="13.5" cy="13.5001" r="12.5" fill="white" stroke="#CCCCCC" stroke-width="2"/>
<path d="M8.16298 19.9039H8.2377L11.6994 19.5884C12.0786 19.5507 12.4333 19.3836 12.7039 19.1153L20.1752 11.6439C20.4652 11.3376 20.6219 10.9287 20.611 10.5071C20.6001 10.0854 20.4225 9.68518 20.1171 9.39421L17.8425 7.1196C17.5456 6.84075 17.1566 6.68075 16.7495 6.67004C16.3423 6.65932 15.9454 6.79864 15.6343 7.06149L8.16298 14.5328C7.89465 14.8034 7.72757 15.1581 7.6898 15.5373L7.33283 18.999C7.32165 19.1206 7.33743 19.2432 7.37904 19.358C7.42065 19.4728 7.48708 19.577 7.57358 19.6631C7.65115 19.7401 7.74314 19.801 7.84428 19.8423C7.94543 19.8836 8.05373 19.9045 8.16298 19.9039ZM16.6886 8.28181L18.9549 10.5481L17.2946 12.1669L15.0698 9.94211L16.6886 8.28181ZM9.30029 15.6784L13.974 11.0379L16.2154 13.2793L11.5666 17.9281L9.07615 18.1606L9.30029 15.6784Z" fill="#A1A1A1"/>
</svg>
