<svg width="132" height="19" viewBox="0 0 132 19" fill="none" xmlns="http://www.w3.org/2000/svg">
<path d="M7.478 1.454V2.786H2.024V7.016H6.452V8.348H2.024V14H0.386V1.454H7.478ZM11.0943 5.738C11.3823 5.174 11.7903 4.736 12.3183 4.424C12.8583 4.112 13.5123 3.956 14.2803 3.956V5.648H13.8483C12.0123 5.648 11.0943 6.644 11.0943 8.636V14H9.45631V4.136H11.0943V5.738ZM25.1712 8.69C25.1712 9.002 25.1532 9.332 25.1172 9.68H17.2332C17.2932 10.652 17.6232 11.414 18.2232 11.966C18.8352 12.506 19.5732 12.776 20.4372 12.776C21.1452 12.776 21.7332 12.614 22.2012 12.29C22.6812 11.954 23.0172 11.51 23.2092 10.958H24.9732C24.7092 11.906 24.1812 12.68 23.3892 13.28C22.5972 13.868 21.6132 14.162 20.4372 14.162C19.5012 14.162 18.6612 13.952 17.9172 13.532C17.1852 13.112 16.6092 12.518 16.1892 11.75C15.7692 10.97 15.5592 10.07 15.5592 9.05C15.5592 8.03 15.7632 7.136 16.1712 6.368C16.5792 5.6 17.1492 5.012 17.8812 4.604C18.6252 4.184 19.4772 3.974 20.4372 3.974C21.3732 3.974 22.2012 4.178 22.9212 4.586C23.6412 4.994 24.1932 5.558 24.5772 6.278C24.9732 6.986 25.1712 7.79 25.1712 8.69ZM23.4792 8.348C23.4792 7.724 23.3412 7.19 23.0652 6.746C22.7892 6.29 22.4112 5.948 21.9312 5.72C21.4632 5.48 20.9412 5.36 20.3652 5.36C19.5372 5.36 18.8292 5.624 18.2412 6.152C17.6652 6.68 17.3352 7.412 17.2512 8.348H23.4792ZM36.3333 8.69C36.3333 9.002 36.3153 9.332 36.2793 9.68H28.3953C28.4553 10.652 28.7853 11.414 29.3853 11.966C29.9973 12.506 30.7353 12.776 31.5993 12.776C32.3073 12.776 32.8953 12.614 33.3633 12.29C33.8433 11.954 34.1793 11.51 34.3713 10.958H36.1353C35.8713 11.906 35.3433 12.68 34.5513 13.28C33.7593 13.868 32.7753 14.162 31.5993 14.162C30.6633 14.162 29.8233 13.952 29.0793 13.532C28.3473 13.112 27.7713 12.518 27.3513 11.75C26.9313 10.97 26.7213 10.07 26.7213 9.05C26.7213 8.03 26.9253 7.136 27.3333 6.368C27.7413 5.6 28.3113 5.012 29.0433 4.604C29.7873 4.184 30.6393 3.974 31.5993 3.974C32.5353 3.974 33.3633 4.178 34.0833 4.586C34.8033 4.994 35.3553 5.558 35.7393 6.278C36.1353 6.986 36.3333 7.79 36.3333 8.69ZM34.6413 8.348C34.6413 7.724 34.5033 7.19 34.2273 6.746C33.9513 6.29 33.5733 5.948 33.0933 5.72C32.6253 5.48 32.1033 5.36 31.5273 5.36C30.6993 5.36 29.9913 5.624 29.4033 6.152C28.8273 6.68 28.4973 7.412 28.4133 8.348H34.6413ZM47.2722 14.126C46.4442 14.126 45.7002 13.982 45.0402 13.694C44.3922 13.394 43.8822 12.986 43.5102 12.47C43.1382 11.942 42.9462 11.336 42.9342 10.652H44.6802C44.7402 11.24 44.9802 11.738 45.4002 12.146C45.8322 12.542 46.4562 12.74 47.2722 12.74C48.0522 12.74 48.6642 12.548 49.1082 12.164C49.5642 11.768 49.7922 11.264 49.7922 10.652C49.7922 10.172 49.6602 9.782 49.3962 9.482C49.1322 9.182 48.8022 8.954 48.4062 8.798C48.0102 8.642 47.4762 8.474 46.8042 8.294C45.9762 8.078 45.3102 7.862 44.8062 7.646C44.3142 7.43 43.8882 7.094 43.5282 6.638C43.1802 6.17 43.0062 5.546 43.0062 4.766C43.0062 4.082 43.1802 3.476 43.5282 2.948C43.8762 2.42 44.3622 2.012 44.9862 1.724C45.6222 1.436 46.3482 1.292 47.1642 1.292C48.3402 1.292 49.3002 1.586 50.0442 2.174C50.8002 2.762 51.2262 3.542 51.3222 4.514H49.5222C49.4622 4.034 49.2102 3.614 48.7662 3.254C48.3222 2.882 47.7342 2.696 47.0022 2.696C46.3182 2.696 45.7602 2.876 45.3282 3.236C44.8962 3.584 44.6802 4.076 44.6802 4.712C44.6802 5.168 44.8062 5.54 45.0582 5.828C45.3222 6.116 45.6402 6.338 46.0122 6.494C46.3962 6.638 46.9302 6.806 47.6142 6.998C48.4422 7.226 49.1082 7.454 49.6122 7.682C50.1162 7.898 50.5482 8.24 50.9082 8.708C51.2682 9.164 51.4482 9.788 51.4482 10.58C51.4482 11.192 51.2862 11.768 50.9622 12.308C50.6382 12.848 50.1582 13.286 49.5222 13.622C48.8862 13.958 48.1362 14.126 47.2722 14.126ZM58.7547 3.956C59.4987 3.956 60.1707 4.118 60.7707 4.442C61.3707 4.754 61.8387 5.228 62.1747 5.864C62.5227 6.5 62.6967 7.274 62.6967 8.186V14H61.0767V8.42C61.0767 7.436 60.8307 6.686 60.3387 6.17C59.8467 5.642 59.1747 5.378 58.3227 5.378C57.4587 5.378 56.7687 5.648 56.2527 6.188C55.7487 6.728 55.4967 7.514 55.4967 8.546V14H53.8587V0.68H55.4967V5.54C55.8207 5.036 56.2647 4.646 56.8287 4.37C57.4047 4.094 58.0467 3.956 58.7547 3.956ZM66.2183 2.534C65.9063 2.534 65.6423 2.426 65.4263 2.21C65.2103 1.994 65.1023 1.73 65.1023 1.418C65.1023 1.106 65.2103 0.842 65.4263 0.625999C65.6423 0.409999 65.9063 0.301999 66.2183 0.301999C66.5183 0.301999 66.7703 0.409999 66.9743 0.625999C67.1903 0.842 67.2983 1.106 67.2983 1.418C67.2983 1.73 67.1903 1.994 66.9743 2.21C66.7703 2.426 66.5183 2.534 66.2183 2.534ZM67.0103 4.136V14H65.3723V4.136H67.0103ZM71.44 5.954C71.764 5.39 72.244 4.922 72.88 4.55C73.528 4.166 74.278 3.974 75.13 3.974C76.006 3.974 76.798 4.184 77.506 4.604C78.226 5.024 78.79 5.618 79.198 6.386C79.606 7.142 79.81 8.024 79.81 9.032C79.81 10.028 79.606 10.916 79.198 11.696C78.79 12.476 78.226 13.082 77.506 13.514C76.798 13.946 76.006 14.162 75.13 14.162C74.29 14.162 73.546 13.976 72.898 13.604C72.262 13.22 71.776 12.746 71.44 12.182V18.68H69.802V4.136H71.44V5.954ZM78.136 9.032C78.136 8.288 77.986 7.64 77.686 7.088C77.386 6.536 76.978 6.116 76.462 5.828C75.958 5.54 75.4 5.396 74.788 5.396C74.188 5.396 73.63 5.546 73.114 5.846C72.61 6.134 72.202 6.56 71.89 7.124C71.59 7.676 71.44 8.318 71.44 9.05C71.44 9.794 71.59 10.448 71.89 11.012C72.202 11.564 72.61 11.99 73.114 12.29C73.63 12.578 74.188 12.722 74.788 12.722C75.4 12.722 75.958 12.578 76.462 12.29C76.978 11.99 77.386 11.564 77.686 11.012C77.986 10.448 78.136 9.788 78.136 9.032ZM83.6041 5.954C83.9281 5.39 84.4081 4.922 85.0441 4.55C85.6921 4.166 86.4421 3.974 87.2941 3.974C88.1701 3.974 88.9621 4.184 89.6701 4.604C90.3901 5.024 90.9541 5.618 91.3621 6.386C91.7701 7.142 91.9741 8.024 91.9741 9.032C91.9741 10.028 91.7701 10.916 91.3621 11.696C90.9541 12.476 90.3901 13.082 89.6701 13.514C88.9621 13.946 88.1701 14.162 87.2941 14.162C86.4541 14.162 85.7101 13.976 85.0621 13.604C84.4261 13.22 83.9401 12.746 83.6041 12.182V18.68H81.9661V4.136H83.6041V5.954ZM90.3001 9.032C90.3001 8.288 90.1501 7.64 89.8501 7.088C89.5501 6.536 89.1421 6.116 88.6261 5.828C88.1221 5.54 87.5641 5.396 86.9521 5.396C86.3521 5.396 85.7941 5.546 85.2781 5.846C84.7741 6.134 84.3661 6.56 84.0541 7.124C83.7541 7.676 83.6041 8.318 83.6041 9.05C83.6041 9.794 83.7541 10.448 84.0541 11.012C84.3661 11.564 84.7741 11.99 85.2781 12.29C85.7941 12.578 86.3521 12.722 86.9521 12.722C87.5641 12.722 88.1221 12.578 88.6261 12.29C89.1421 11.99 89.5501 11.564 89.8501 11.012C90.1501 10.448 90.3001 9.788 90.3001 9.032ZM95.7681 5.954C96.0921 5.39 96.5721 4.922 97.2081 4.55C97.8561 4.166 98.6061 3.974 99.4581 3.974C100.334 3.974 101.126 4.184 101.834 4.604C102.554 5.024 103.118 5.618 103.526 6.386C103.934 7.142 104.138 8.024 104.138 9.032C104.138 10.028 103.934 10.916 103.526 11.696C103.118 12.476 102.554 13.082 101.834 13.514C101.126 13.946 100.334 14.162 99.4581 14.162C98.6181 14.162 97.8741 13.976 97.2261 13.604C96.5901 13.22 96.1041 12.746 95.7681 12.182V18.68H94.1301V4.136H95.7681V5.954ZM102.464 9.032C102.464 8.288 102.314 7.64 102.014 7.088C101.714 6.536 101.306 6.116 100.79 5.828C100.286 5.54 99.7281 5.396 99.1161 5.396C98.5161 5.396 97.9581 5.546 97.4421 5.846C96.9381 6.134 96.5301 6.56 96.2181 7.124C95.9181 7.676 95.7681 8.318 95.7681 9.05C95.7681 9.794 95.9181 10.448 96.2181 11.012C96.5301 11.564 96.9381 11.99 97.4421 12.29C97.9581 12.578 98.5161 12.722 99.1161 12.722C99.7281 12.722 100.286 12.578 100.79 12.29C101.306 11.99 101.714 11.564 102.014 11.012C102.314 10.448 102.464 9.788 102.464 9.032ZM107.14 2.534C106.828 2.534 106.564 2.426 106.348 2.21C106.132 1.994 106.024 1.73 106.024 1.418C106.024 1.106 106.132 0.842 106.348 0.625999C106.564 0.409999 106.828 0.301999 107.14 0.301999C107.44 0.301999 107.692 0.409999 107.896 0.625999C108.112 0.842 108.22 1.106 108.22 1.418C108.22 1.73 108.112 1.994 107.896 2.21C107.692 2.426 107.44 2.534 107.14 2.534ZM107.932 4.136V14H106.294V4.136H107.932ZM115.53 3.956C116.73 3.956 117.702 4.322 118.446 5.054C119.19 5.774 119.562 6.818 119.562 8.186V14H117.942V8.42C117.942 7.436 117.696 6.686 117.204 6.17C116.712 5.642 116.04 5.378 115.188 5.378C114.324 5.378 113.634 5.648 113.118 6.188C112.614 6.728 112.362 7.514 112.362 8.546V14H110.724V4.136H112.362V5.54C112.686 5.036 113.124 4.646 113.676 4.37C114.24 4.094 114.858 3.956 115.53 3.956ZM126.306 3.974C127.158 3.974 127.902 4.16 128.538 4.532C129.186 4.904 129.666 5.372 129.978 5.936V4.136H131.634V14.216C131.634 15.116 131.442 15.914 131.058 16.61C130.674 17.318 130.122 17.87 129.402 18.266C128.694 18.662 127.866 18.86 126.918 18.86C125.622 18.86 124.542 18.554 123.678 17.942C122.814 17.33 122.304 16.496 122.148 15.44H123.768C123.948 16.04 124.32 16.52 124.884 16.88C125.448 17.252 126.126 17.438 126.918 17.438C127.818 17.438 128.55 17.156 129.114 16.592C129.69 16.028 129.978 15.236 129.978 14.216V12.146C129.654 12.722 129.174 13.202 128.538 13.586C127.902 13.97 127.158 14.162 126.306 14.162C125.43 14.162 124.632 13.946 123.912 13.514C123.204 13.082 122.646 12.476 122.238 11.696C121.83 10.916 121.626 10.028 121.626 9.032C121.626 8.024 121.83 7.142 122.238 6.386C122.646 5.618 123.204 5.024 123.912 4.604C124.632 4.184 125.43 3.974 126.306 3.974ZM129.978 9.05C129.978 8.306 129.828 7.658 129.528 7.106C129.228 6.554 128.82 6.134 128.304 5.846C127.8 5.546 127.242 5.396 126.63 5.396C126.018 5.396 125.46 5.54 124.956 5.828C124.452 6.116 124.05 6.536 123.75 7.088C123.45 7.64 123.3 8.288 123.3 9.032C123.3 9.788 123.45 10.448 123.75 11.012C124.05 11.564 124.452 11.99 124.956 12.29C125.46 12.578 126.018 12.722 126.63 12.722C127.242 12.722 127.8 12.578 128.304 12.29C128.82 11.99 129.228 11.564 129.528 11.012C129.828 10.448 129.978 9.794 129.978 9.05Z" fill="black"/>
</svg>
