<svg width="20" height="17" viewBox="0 0 20 17" fill="none" xmlns="http://www.w3.org/2000/svg">
<path d="M12.3224 16.8333C12.875 16.8333 13.4049 16.6138 13.7956 16.2231C14.1863 15.8324 14.4058 15.3025 14.4058 14.75C14.4058 14.1975 14.1863 13.6676 13.7956 13.2768C13.4049 12.8861 12.875 12.6667 12.3224 12.6667C11.7699 12.6667 11.24 12.8861 10.8493 13.2768C10.4586 13.6676 10.2391 14.1975 10.2391 14.75C10.2391 15.3025 10.4586 15.8324 10.8493 16.2231C11.24 16.6138 11.7699 16.8333 12.3224 16.8333ZM5.03076 16.8333C5.58329 16.8333 6.1132 16.6138 6.5039 16.2231C6.8946 15.8324 7.11409 15.3025 7.11409 14.75C7.11409 14.1975 6.8946 13.6676 6.5039 13.2768C6.1132 12.8861 5.58329 12.6667 5.03076 12.6667C4.47822 12.6667 3.94832 12.8861 3.55762 13.2768C3.16692 13.6676 2.94742 14.1975 2.94742 14.75C2.94742 15.3025 3.16692 15.8324 3.55762 16.2231C3.94832 16.6138 4.47822 16.8333 5.03076 16.8333ZM18.612 2.16978C18.872 2.16139 19.1186 2.0522 19.2996 1.86528C19.4806 1.67837 19.5818 1.42839 19.5818 1.16822C19.5818 0.908044 19.4806 0.658067 19.2996 0.471154C19.1186 0.28424 18.872 0.175044 18.612 0.166656H17.413C16.4735 0.166656 15.661 0.81874 15.4568 1.73541L14.1516 7.61249C13.9474 8.52915 13.1349 9.18124 12.1953 9.18124H4.37034L2.86826 3.17082H12.6026C12.8602 3.15907 13.1034 3.04847 13.2815 2.86202C13.4596 2.67558 13.559 2.42764 13.559 2.16978C13.559 1.91192 13.4596 1.66398 13.2815 1.47754C13.1034 1.2911 12.8602 1.18049 12.6026 1.16874H2.86826C2.56374 1.16865 2.26322 1.23799 1.98952 1.37148C1.71583 1.50498 1.47618 1.69912 1.28878 1.93914C1.10138 2.17916 0.971169 2.45875 0.908049 2.75665C0.844927 3.05455 0.850557 3.36292 0.924509 3.65832L2.42659 9.66665C2.53488 10.1002 2.78502 10.4851 3.13723 10.7601C3.48943 11.0351 3.92348 11.1844 4.37034 11.1844H12.1953C13.107 11.1845 13.9915 10.8737 14.7026 10.3032C15.4138 9.73278 15.9091 8.93684 16.1068 8.04686L17.413 2.16978H18.612Z" fill="#0156FF"/>
</svg>
