<svg width="14" height="13" viewBox="0 0 14 13" fill="none" xmlns="http://www.w3.org/2000/svg">
<path d="M7.17546 0.173835C7.21261 0.10127 7.31632 0.10127 7.35348 0.173834L9.19369 3.76772C9.20821 3.79609 9.23539 3.81583 9.26686 3.82088L13.2535 4.46045C13.334 4.47337 13.366 4.572 13.3085 4.62976L10.4592 7.49048C10.4367 7.51306 10.4263 7.54501 10.4312 7.57649L11.0549 11.5657C11.0675 11.6462 10.9836 11.7072 10.9109 11.6703L7.30969 9.84443C7.28126 9.83002 7.24767 9.83002 7.21924 9.84443L3.61805 11.6703C3.54534 11.7072 3.46144 11.6462 3.47403 11.5657L4.0977 7.57649C4.10262 7.54501 4.09224 7.51306 4.06975 7.49048L1.22042 4.62976C1.16289 4.572 1.19494 4.47337 1.27543 4.46045L5.26207 3.82088C5.29354 3.81583 5.32072 3.79609 5.33524 3.76772L7.17546 0.173835Z" fill="#E9A426"/>
</svg>
