<svg width="14" height="13" viewBox="0 0 14 13" fill="none" xmlns="http://www.w3.org/2000/svg">
<path d="M7.33171 0.173835C7.36886 0.10127 7.47257 0.10127 7.50973 0.173834L9.34994 3.76772C9.36446 3.79609 9.39164 3.81583 9.42311 3.82088L13.4098 4.46045C13.4902 4.47337 13.5223 4.572 13.4648 4.62976L10.6154 7.49048C10.5929 7.51306 10.5826 7.54501 10.5875 7.57649L11.2112 11.5657C11.2237 11.6462 11.1398 11.7072 11.0671 11.6703L7.46594 9.84443C7.43751 9.83002 7.40392 9.83002 7.37549 9.84443L3.7743 11.6703C3.70159 11.7072 3.61769 11.6462 3.63028 11.5657L4.25395 7.57649C4.25887 7.54501 4.24849 7.51306 4.226 7.49048L1.37667 4.62976C1.31914 4.572 1.35119 4.47337 1.43168 4.46045L5.41832 3.82088C5.44979 3.81583 5.47697 3.79609 5.49149 3.76772L7.33171 0.173835Z" fill="#C4C4C4"/>
</svg>
